<?xml version="1.0" encoding="UTF-8"?>
<svg width="466px" height="387px" viewBox="0 0 466 387" version="1.1" xmlns="http://www.w3.org/2000/svg" xmlns:xlink="http://www.w3.org/1999/xlink">
    <!-- Generator: Sketch 46.2 (44496) - http://www.bohemiancoding.com/sketch -->
    <title>Group</title>
    <desc>Created with Sketch.</desc>
    <defs></defs>
    <g id="Page-1" stroke="none" stroke-width="1" fill="none" fill-rule="evenodd">
        <g id="elements" transform="translate(-20.000000, -40.000000)" fill-rule="nonzero" fill="#000000">
            <g id="Group" transform="translate(20.000000, 40.000000)">
                <path d="M178.959798,127.975643 C176.165701,127.741468 173.457498,125.710257 171.68403,122.503083 C170.69877,120.72641 170.036877,118.517023 169.789299,116.20073 L169.728667,115.600021 L169.400247,115.992009 C169.218353,116.20582 168.793933,116.648716 168.455408,116.979615 C166.626361,118.761379 164.650787,119.98825 162.463004,120.690774 C160.5228,121.316937 158.446174,121.383117 156.692916,120.874041 C156.071444,120.695865 155.015448,120.161336 154.489975,119.759166 C151.766615,117.682139 151.225985,113.83862 153.135874,110.214003 C154.368713,107.872257 156.500917,105.810502 159.199014,104.344365 C159.57796,104.140734 160.128696,103.870924 160.421747,103.743656 C160.719852,103.616387 160.962377,103.50439 160.962377,103.489118 C160.962377,103.473846 160.719852,103.361849 160.421747,103.23458 C157.748913,102.094251 155.2125,100.022315 153.721978,97.7518386 C152.10514,95.2930046 151.594826,92.5541792 152.327455,90.2837031 C152.868085,88.6190266 153.964503,87.3616105 155.581341,86.5623622 C156.718179,85.9972885 157.738808,85.7732954 159.158593,85.7732954 C160.366169,85.7732954 161.346376,85.926018 162.463004,86.2874615 C164.650787,86.9899855 166.626361,88.2168571 168.455408,89.9986209 C168.793933,90.3295198 169.218353,90.7724154 169.400247,90.9862271 L169.728667,91.3782151 L169.789299,90.7775062 C170.188455,86.979804 171.643609,83.7166309 173.927392,81.4970623 C174.740863,80.7130863 175.397703,80.2345555 176.327384,79.7611154 C176.857909,79.4963962 177.792643,79.1807695 178.368642,79.0789544 C178.949692,78.9771393 180.051163,78.9720486 180.617056,79.0738636 C183.759784,79.6389373 185.987987,82.4948501 186.382092,86.4605471 C186.457881,87.2547047 186.412407,88.6953879 186.281039,89.5913606 C185.977882,91.5920267 185.199779,93.7708693 184.148835,95.5271793 C184.012414,95.7562632 183.901257,95.9548026 183.901257,95.9649841 C183.901257,95.9751656 184.259993,95.9140765 184.69957,95.822443 C186.912616,95.3693659 189.150925,95.3540937 191.217446,95.781717 C193.435544,96.2398848 195.421223,97.268217 196.810692,98.6783558 C198.998475,100.903015 199.50879,103.881106 198.149636,106.487572 C197.290691,108.126794 195.699117,109.531842 193.738701,110.387089 C191.975338,111.155793 190.257448,111.496873 188.145455,111.496873 C186.84188,111.496873 185.927356,111.40524 184.69957,111.155793 C184.259993,111.064159 183.901257,111.00307 183.901257,111.013252 C183.901257,111.023433 184.012414,111.221973 184.148835,111.451057 C184.729886,112.42339 185.361463,113.843711 185.720199,114.968767 C186.447776,117.269788 186.614512,119.662442 186.200197,121.724197 C185.56862,124.84992 183.653679,127.125487 181.092002,127.797466 C180.68274,127.904372 180.440214,127.940007 179.657059,127.996006 C179.530743,128.006187 179.217481,127.996006 178.959798,127.975643 Z" id="Shape"></path>
                <path d="M419.286156,52.9680185 C414.930943,52.5866838 410.825313,50.2049046 408.1735,46.5103338 C405.072439,42.1968754 404.1989,36.6643962 405.752551,31.1944308 C406.626089,28.1187475 408.341968,24.9993044 410.918906,21.7860905 C412.728379,19.5293391 414.088603,18.0665141 424.090617,7.62669452 C426.623878,4.98860838 427.478698,4.0696542 428.314799,3.08818614 C429.313129,1.91292502 430.00572,0.900200008 430.224104,0.293815281 C430.280261,0.131279168 430.342656,0 430.361375,0 C430.380093,0 430.442489,0.131279168 430.498645,0.300066669 C430.71703,0.900200008 431.409621,1.91292502 432.40795,3.08818614 C433.244051,4.0696542 434.098871,4.98860838 436.632132,7.62669452 C447.707351,19.1855127 448.811753,20.3920307 450.83961,23.1301391 C454.976439,28.7126294 456.523849,34.5514267 455.344573,40.1401684 C454.190254,45.6413907 450.477716,50.0861282 445.411193,52.0490644 C440.937429,53.7869505 435.902104,53.0992977 432.688731,50.3174296 C431.808953,49.5610116 430.935414,48.3607449 430.57352,47.4230366 C430.473687,47.1667296 430.380093,46.947931 430.361375,46.947931 C430.342656,46.947931 430.249063,47.1667296 430.14923,47.4230366 C429.787335,48.3607449 428.913797,49.5610116 428.034019,50.3174296 C426.03736,52.0490644 423.223318,53.0305324 420.346881,52.9992755 C419.903872,52.9930241 419.423426,52.9805213 419.286156,52.9680185 Z" id="Shape" transform="translate(430.364248, 26.500000) scale(1, -1) translate(-430.364248, -26.500000) "></path>
                <path d="M160.4724,199.337933 C153.055224,193.98219 146.990808,189.549535 147.00001,189.494698 C147.009213,189.439861 149.319028,182.329334 152.144181,173.692512 L157.288352,158 L174.000004,158 L190.711657,158 L195.855827,173.701651 C198.68098,182.329334 200.990795,189.439861 200.999998,189.494698 C201.0092,189.576953 174.064421,209.108053 173.981599,209.080634 C173.963194,209.080634 167.889576,204.693677 160.4724,199.337933 Z" id="Shape"></path>
                <path d="M32.1262717,366.471668 L23.1319542,358.429897 L11.6520083,354.731758 C5.3397313,352.701144 0.178835261,351.020172 0.178835261,351 C0.178835261,350.979828 5.3397313,349.30558 11.6520083,347.268242 L23.1319542,343.570103 L32.1262717,335.528332 C37.0704372,331.104014 41.1273621,327.493285 41.1409077,327.500009 C41.1476806,327.506733 40.0233909,332.798434 38.6417337,339.260091 L36.1290139,351 L38.6417337,362.739909 C40.0233909,369.201566 41.1476806,374.493267 41.1409077,374.499991 C41.1273621,374.506715 37.0704372,370.895986 32.1262717,366.471668 Z" id="Shape"></path>
                <path d="M76.9640238,373.122249 C80.3255327,366.583654 88.1802305,351.092211 88.1802305,351 C88.1802305,350.907789 80.3255327,335.416346 76.9640238,328.877751 L76,327 L77.8777506,327.964024 C84.4163465,331.325533 99.907789,339.180231 100,339.180231 C100.092211,339.180231 115.583654,331.325533 122.122249,327.964024 L124,327 L123.035976,328.877751 C119.674467,335.416346 111.819769,350.907789 111.819769,351 C111.819769,351.092211 119.674467,366.583654 123.035976,373.122249 L124,375 L122.122249,374.035976 C115.583654,370.674467 100.092211,362.819769 100,362.819769 C99.907789,362.819769 84.4163465,370.674467 77.8777506,374.035976 L76,375 L76.9640238,373.122249 Z" id="Shape"></path>
                <path d="M169.49866,368.782513 L169.475443,357.488464 L158.741591,354.028749 C152.829073,352.122061 148,350.545969 148,350.522904 C148,350.499839 152.829073,348.923747 158.741591,347.017059 L169.475443,343.557344 L169.514137,332.278672 L169.552832,321 L176.16959,330.041389 C179.806872,335.015691 182.809565,339.12122 182.832781,339.159661 C182.871476,339.213479 204.207618,332.386308 204.447524,332.240231 C204.563608,332.171036 204.602302,332.117219 197.80755,341.41232 C194.185745,346.363558 191.229486,350.461398 191.229486,350.522904 C191.229486,350.58441 194.185745,354.689939 197.80755,359.633488 C204.602302,368.92859 204.563608,368.874772 204.447524,368.805578 C204.33918,368.736383 182.886954,361.816953 182.863737,361.840017 C182.855998,361.855394 179.876522,365.93017 176.246979,370.896783 C172.617436,375.863397 169.614743,379.961238 169.583787,379.999679 C169.545093,380.045808 169.506398,375.117636 169.49866,368.782513 Z" id="Shape"></path>
                <path d="M424.993731,377.275819 C424.243347,371.933249 423.625384,367.551637 423.616556,367.534005 C423.5989,367.525189 419.67042,369.094458 414.867963,371.034005 C410.065507,372.973552 405.925154,374.639798 405.677968,374.736776 L405.227738,374.913098 L410.471597,366.537783 C413.358367,361.926952 415.715455,358.144836 415.715455,358.13602 C415.715455,358.127204 411.504478,356.751889 406.357728,355.076826 C401.210977,353.410579 397,352.026448 397,352 C397,351.973552 401.210977,350.589421 406.357728,348.923174 C411.504478,347.248111 415.715455,345.872796 415.715455,345.86398 C415.715455,345.855164 413.358367,342.073048 410.471597,337.462217 L405.227738,329.086902 L405.677968,329.263224 C405.925154,329.360202 410.065507,331.026448 414.867963,332.965995 C419.67042,334.905542 423.5989,336.474811 423.616556,336.465995 C423.625384,336.448363 424.243347,332.066751 424.993731,326.724181 C425.744115,321.372796 426.370906,317 426.39739,317 C426.423874,317 428.524949,320.905542 431.067426,325.683879 L435.684493,334.367758 L436.231832,333.891688 C436.523158,333.627204 439.833675,330.656171 443.567938,327.288413 C447.311029,323.920655 450.37436,321.170025 450.392016,321.187657 C450.400844,321.196474 449.491556,325.516373 448.370394,330.788413 C447.249232,336.060453 446.3576,340.397985 446.384084,340.433249 C446.419396,340.459698 450.833419,340.336272 456.20087,340.151134 C461.559493,339.965995 465.973516,339.824937 465.991172,339.851385 C466.008828,339.869018 462.557062,342.593199 458.310773,345.90806 C454.064483,349.222922 450.586233,351.964736 450.586233,352 C450.586233,352.035264 454.064483,354.777078 458.310773,358.09194 C462.557062,361.406801 466.008828,364.130982 465.991172,364.148615 C465.973516,364.175063 461.559493,364.034005 456.20087,363.848866 C450.833419,363.663728 446.419396,363.540302 446.384084,363.566751 C446.3576,363.602015 447.249232,367.939547 448.370394,373.211587 C449.491556,378.483627 450.400844,382.803526 450.392016,382.812343 C450.37436,382.829975 447.311029,380.079345 443.567938,376.711587 C439.833675,373.343829 436.523158,370.372796 436.231832,370.108312 L435.684493,369.632242 L431.067426,378.316121 C428.524949,383.094458 426.423874,387 426.39739,387 C426.370906,387 425.744115,382.627204 424.993731,377.275819 Z" id="Shape"></path>
                <path d="M257.982679,374.731824 C254.974065,369.683643 252.448208,365.463881 252.370622,365.368958 C252.232691,365.196371 252.043037,365.308552 243.146504,371.193782 C238.146515,374.498831 234.051696,377.191194 234.043075,377.182565 C234.034455,377.173936 235.749968,372.565852 237.853412,366.948133 C239.965476,361.330413 241.68099,356.730959 241.672369,356.72233 C241.655128,356.705071 236.999966,355.194931 231.318943,353.348246 C225.646542,351.501561 221,349.974163 221,349.948275 C221,349.922387 225.646542,348.394988 231.327564,346.548303 C236.999966,344.701618 241.655128,343.191478 241.672369,343.17422 C241.68099,343.16559 239.965476,338.566136 237.853412,332.948417 C235.749968,327.330697 234.034455,322.722614 234.043075,322.713984 C234.051696,322.705355 238.146515,325.397718 243.137883,328.694137 C250.793039,333.750948 252.232691,334.68292 252.327519,334.579367 C252.396484,334.510332 254.930961,330.290571 257.974058,325.190613 C261.008535,320.090656 263.499909,315.957188 263.499909,316.000335 C263.543012,316.88053 265.465422,337.625535 265.508525,337.668682 C265.543008,337.703199 270.387825,337.073255 276.267122,336.279353 C282.14642,335.485451 286.982617,334.846878 286.999858,334.872766 C287.02572,334.890025 283.517107,338.281367 279.215392,342.406206 C274.913677,346.531044 271.387823,349.922387 271.387823,349.948275 C271.387823,349.974163 274.913677,353.365505 279.215392,357.490344 C283.517107,361.615182 287.02572,365.006525 286.999858,365.023783 C286.982617,365.049671 282.14642,364.411098 276.267122,363.617196 C270.387825,362.823294 265.543008,362.19335 265.508525,362.227868 C265.482663,362.262385 265.017147,367.146608 264.482665,373.083614 C263.948183,379.020621 263.499909,383.887585 263.482667,383.904844 C263.465426,383.913473 260.991293,379.788635 257.982679,374.731824 Z" id="Shape"></path>
                <path d="M328.913025,383.543958 C328.995084,382.796811 330.581556,362.414283 330.563321,362.386948 C330.554203,362.377836 325.703611,362.75141 319.786253,363.216099 C313.868895,363.689899 309.018303,364.054361 309.000068,364.045249 C308.981832,364.036138 312.656247,360.874431 317.160368,357.038471 C321.66449,353.193398 325.348022,350.013469 325.348022,349.967911 C325.348022,349.922353 321.66449,346.742424 317.160368,342.897351 C312.656247,339.06139 308.981832,335.899684 309.000068,335.890572 C309.018303,335.881461 313.868895,336.245923 319.786253,336.719723 C325.703611,337.184412 330.554203,337.557985 330.563321,337.548874 C330.572438,337.539762 330.198614,332.69242 329.733614,326.779026 C329.259496,320.865633 328.89479,316.018291 328.903907,316.000068 C328.913025,315.981844 332.076851,319.653797 335.915384,324.154901 C339.763034,328.656005 342.945095,332.337069 342.990684,332.337069 C343.036272,332.337069 346.218333,328.656005 350.065984,324.154901 C353.904516,319.653797 357.068342,315.981844 357.07746,316.000068 C357.086578,316.018291 356.721871,320.865633 356.247753,326.779026 C355.782753,332.69242 355.408929,337.539762 355.418047,337.548874 C355.427164,337.557985 360.277757,337.184412 366.195114,336.719723 C372.112472,336.245923 376.963064,335.881461 376.9813,335.890572 C376.999535,335.899684 373.32512,339.06139 368.820999,342.897351 C364.316878,346.742424 360.633345,349.922353 360.633345,349.967911 C360.633345,350.013469 364.316878,353.193398 368.820999,357.038471 C373.32512,360.874431 376.999535,364.036138 376.9813,364.045249 C376.963064,364.054361 372.112472,363.689899 366.195114,363.216099 C360.277757,362.75141 355.427164,362.377836 355.418047,362.386948 C355.408929,362.39606 355.782753,367.243402 356.247753,373.156795 C356.721871,379.070189 357.086578,383.917531 357.07746,383.935754 C357.068342,383.953977 353.904516,380.282024 350.065984,375.780921 C346.218333,371.279817 343.036272,367.598752 342.990684,367.598752 C342.945095,367.598752 339.845093,371.188701 336.106855,375.571355 C332.359498,379.954009 329.195672,383.644185 329.077143,383.771746 L328.858319,383.990423 L328.913025,383.543958 Z" id="Shape"></path>
                <path d="M428.849479,209.964588 C428.663489,209.941349 428.000896,209.86001 427.396425,209.790292 C422.363045,209.220923 417.271542,207.094503 412.982125,203.782867 C411.715062,202.795185 409.180935,200.262074 408.192858,198.995518 C404.86827,194.6962 402.926989,190.048289 402.148152,184.528894 C402.066781,183.947905 401.997034,182.379235 401.997034,180.984862 C401.997034,176.8947 402.624753,173.641162 404.101057,170.004172 C405.57736,166.402041 407.64651,163.29956 410.482872,160.475954 C415.121021,155.828043 420.689126,153.097395 427.454547,152.144573 C428.814606,151.947037 433.185394,151.947037 434.545453,152.144573 C440.06706,152.923098 444.716834,154.863601 449.017875,158.186857 C450.284938,159.174539 452.819065,161.70765 453.807142,162.974206 C457.13173,167.273524 459.073011,171.921435 459.851848,177.44083 C459.933219,178.021819 460.002966,179.590489 460.002966,180.984862 C460.002966,182.379235 459.933219,183.947905 459.851848,184.528894 C459.073011,190.048289 457.13173,194.6962 453.807142,198.995518 C452.819065,200.262074 450.284938,202.795185 449.017875,203.782867 C444.774956,207.059644 440.125182,209.023386 434.719819,209.801912 C433.824738,209.929729 429.477199,210.057547 428.849479,209.964588 Z" id="Shape"></path>
                <polygon id="Shape" points="92.334 35.292 92.334 27.584 84.667 27.584 77 27.584 77 22.459 77 17.334 84.667 17.334 92.334 17.334 92.334 9.667 92.334 2 97.459 2 102.584 2 102.584 9.667 102.584 17.334 110.292 17.334 118 17.334 118 22.459 118 27.584 110.292 27.584 102.584 27.584 102.584 35.292 102.584 43 97.459 43 92.334 43"></polygon>
                <path d="M231.147341,193.535014 C224.969205,182.880752 223.932807,181.030012 224.003242,180.839936 C224.053552,180.709884 227.313677,175.067627 231.2379,168.304922 L238.382,156 L252.921751,156 L267.461503,156 L274.696161,168.464986 C280.874298,179.119248 281.910695,180.969988 281.84026,181.160064 C281.78995,181.290116 278.539888,186.932373 274.605602,193.695078 L267.461503,206 L252.921751,206 L238.382,206 L231.147341,193.535014 Z" id="Shape"></path>
                <polygon id="Shape" points="321.4912 202.4972 313 194.006 313 182 313 169.994 321.5028 161.4912 329.994 153 342 153 354.006 153 362.4972 161.4912 371 169.994 371 182 371 194.006 362.4972 202.5088 354.006 211 342 211 329.994 211"></polygon>
                <polygon id="Shape" points="73 181.5 73 159 95.5 159 118 159 118 181.5 118 204 95.5 204 73 204"></polygon>
                <path d="M14.7631563,285.586747 C10.4901585,278.213253 7,272.09759 7,272 C7,271.815663 22.4828216,245 22.5915493,245 C22.700277,245 38.1830986,271.815663 38.1830986,272 C38.1830986,272.184337 22.700277,299 22.5915493,299 C22.558931,299 19.0361542,292.960241 14.7631563,285.586747 Z" id="Shape"></path>
                <path d="M11.975,181.858551 C5.39166667,170.440976 0,161.075061 0,161.050041 C0,161.02502 10.8,161 24,161 C37.2,161 48,161.02502 48,161.050041 C48,161.133441 24.05,202.617021 24,202.617021 C23.975,202.617021 18.5666667,193.276127 11.975,181.858551 Z" id="Shape" transform="translate(24.000000, 181.808511) scale(1, -1) translate(-24.000000, -181.808511) "></path>
                <path d="M428.704813,128.432995 C426.843762,127.177071 425.918945,126.412099 424.274826,124.76798 C419.7535,120.235237 417.081807,114.766259 416.145573,108.144114 C415.951476,106.808268 415.951476,102.515291 416.145573,101.179445 C416.910545,95.7561369 418.817266,91.1891407 422.082668,86.9646692 C423.053155,85.7201627 425.542168,83.2311498 426.786674,82.2606631 C427.939841,81.3700989 430.017824,80 430.211921,80 C430.406019,80 432.484002,81.3700989 433.637168,82.2606631 C434.881675,83.2311498 437.370688,85.7201627 438.341175,86.9646692 C441.606577,91.1891407 443.513298,95.7561369 444.27827,101.179445 C444.472367,102.515291 444.472367,106.808268 444.27827,108.144114 C443.63889,112.71111 442.200286,116.62731 439.836866,120.246654 C438.660864,122.0392 437.701795,123.215202 436.091929,124.81365 C435.281287,125.63571 434.17379,126.640449 433.637168,127.062896 C432.438332,127.987713 430.406019,129.323559 430.200504,129.323559 C430.109164,129.323559 429.435532,128.923947 428.704813,128.432995 Z" id="vesica"></path>
                <path d="M16.442727,130.040228 C15.7798771,129.983264 15.1739908,129.900408 14.7079245,129.807195 C12.0409893,129.268629 9.63297988,127.860073 7.87228481,125.81456 C6.26176667,123.939937 5.28302735,121.744247 4.91535279,119.170525 C4.79106843,118.331605 4.79106843,116.664124 4.91535279,115.778598 C5.25713477,113.251482 6.3083733,110.807223 7.88782035,108.839388 C8.62316947,107.927969 9.81940641,106.814588 10.8499309,106.084418 L10.9793938,105.991204 L10.8499309,105.90317 C9.81940641,105.167821 8.62316947,104.05444 7.88782035,103.143021 C6.3083733,101.175186 5.25713477,98.7309265 4.91535279,96.2038112 C4.79106843,95.3182852 4.79106843,93.6508034 4.91535279,92.811884 C5.28302735,90.2381621 6.26176667,88.0424717 7.87228481,86.1678493 C9.85565602,83.8582317 12.5847334,82.413426 15.7177349,82.0095019 C16.4271914,81.9162886 18.0480666,81.9318241 18.7989513,82.0353944 C21.13964,82.3616409 23.4130081,83.3403802 25.2979875,84.847328 C25.8624456,85.2926803 26.8826131,86.3128478 27.3383224,86.8824844 C28.9902686,88.9538904 30.0363287,91.424042 30.3522181,94.028835 C30.3988247,94.4120451 30.4402528,94.733113 30.4454313,94.7382915 C30.4506098,94.7486486 30.694,94.6502568 30.9788184,94.5207939 C32.0352354,94.0599061 33.3920063,93.6611604 34.5675292,93.4799124 C35.2925213,93.3711636 37.2396429,93.3245569 37.9905276,93.4022347 C42.0608403,93.8268729 45.5874089,95.9086359 47.7520282,99.1555647 C48.7566601,100.667691 49.3832604,102.252317 49.6939713,104.080332 C49.8648623,105.084964 49.8648623,106.897445 49.6939713,107.902076 C48.7100534,113.686478 44.039033,117.943217 37.9905276,118.580174 C37.2396429,118.657852 35.2925213,118.611245 34.5675292,118.502496 C33.3920063,118.321248 32.0352354,117.922503 30.9788184,117.461615 C30.694,117.332152 30.4506098,117.23376 30.4454313,117.244117 C30.4402528,117.249296 30.3988247,117.570364 30.3522181,117.953574 C30.0363287,120.558367 28.9902686,123.028519 27.3383224,125.099924 C26.8826131,125.669561 25.8624456,126.689729 25.2979875,127.135081 C23.4492577,128.610958 21.2328533,129.584518 18.9801993,129.915943 C18.3328849,130.009157 16.9087933,130.081656 16.442727,130.040228 Z" id="Shape"></path>
                <path d="M96.1538846,131.923412 C91.6657897,131.312357 88.1574901,127.419514 87.3462617,122.130726 C87.1934979,121.145663 87.2040333,118.711978 87.3673326,117.700576 C87.4884901,116.936757 87.7097342,115.967497 87.899372,115.36171 C87.9573169,115.17734 87.9994586,115.019308 87.9941909,115.008773 C87.9836555,115.003505 87.8256239,115.045647 87.6412538,115.103592 C87.0354664,115.29323 86.0662064,115.514474 85.3023875,115.635631 C84.2909858,115.79893 81.8573005,115.809466 80.8722374,115.656702 C75.5571109,114.840206 71.6695357,111.321371 71.0742837,106.791134 C70.5422442,102.719189 72.9127169,98.7736688 77.0689457,96.8193458 C78.2015049,96.2873064 79.5605759,95.8816921 80.8722374,95.6815189 C81.8573005,95.5287551 84.2909858,95.5392905 85.3023875,95.7025898 C86.0662064,95.8237472 87.0354664,96.0449914 87.6412538,96.2346292 C87.8256239,96.2925741 87.9836555,96.3347158 87.9941909,96.3294481 C87.9994586,96.3189127 87.9573169,96.1608811 87.899372,95.976511 C87.7097342,95.3707236 87.4884901,94.4014636 87.3673326,93.6376447 C87.2040333,92.626243 87.1934979,90.1925577 87.3462617,89.2074946 C88.1627578,83.8923681 91.6815928,80.0047929 96.2118295,79.4095409 C100.283775,78.8775014 104.229295,81.2479741 106.183618,85.4042029 C106.715657,86.5367621 107.121272,87.8958331 107.321445,89.2074946 C107.474209,90.1925577 107.463673,92.626243 107.300374,93.6376447 C107.179216,94.4014636 106.957972,95.3707236 106.768335,95.976511 C106.71039,96.1608811 106.668248,96.3189127 106.673516,96.3294481 C106.684051,96.3347158 106.842083,96.2925741 107.026453,96.2346292 C107.63224,96.0449914 108.6015,95.8237472 109.365319,95.7025898 C110.376721,95.5392905 112.810406,95.5287551 113.795469,95.6815189 C115.107131,95.8816921 116.466202,96.2873064 117.598761,96.8193458 C121.75499,98.7736688 124.125462,102.719189 123.593423,106.791134 C122.998171,111.321371 119.110596,114.840206 113.795469,115.656702 C112.810406,115.809466 110.376721,115.79893 109.365319,115.635631 C108.6015,115.514474 107.63224,115.29323 107.026453,115.103592 C106.842083,115.045647 106.684051,115.003505 106.673516,115.008773 C106.668248,115.019308 106.71039,115.17734 106.768335,115.36171 C106.957972,115.967497 107.179216,116.936757 107.300374,117.700576 C107.463673,118.711978 107.474209,121.145663 107.321445,122.130726 C106.647177,126.513467 104.129208,129.979625 100.615641,131.370302 C99.2091605,131.92868 97.6235777,132.123586 96.1538846,131.923412 Z" id="Shape"></path>
                <path d="M342.323108,132.939207 C340.118145,132.425848 338.334718,129.540228 337.751051,125.530621 C337.470026,123.596067 337.464622,121.337286 337.734838,119.2136 C337.778072,118.862354 337.805094,118.565146 337.79969,118.554338 C337.788881,118.548934 337.610538,118.765086 337.39977,119.035275 C335.12455,121.980336 332.195406,124.379616 329.595927,125.422546 C327.163981,126.40063 325.083317,126.276343 323.89977,125.092915 C322.159578,123.352897 322.770266,119.753978 325.41298,116.176674 C326.57491,114.609577 328.271867,112.896578 329.958016,111.594266 C330.228233,111.383518 330.444406,111.205194 330.439001,111.194386 C330.428193,111.188982 330.130955,111.216001 329.779674,111.259231 C327.126151,111.594266 324.37535,111.496998 322.110939,110.994446 C320.597728,110.654008 318.998048,109.989343 318.019866,109.292255 C317.117344,108.649204 316.414782,107.790003 316.133757,106.968628 C315.955414,106.466076 315.955414,105.525818 316.133757,105.023266 C316.857936,102.937406 319.657376,101.305464 323.46202,100.748874 C325.396767,100.467878 327.655775,100.462474 329.779674,100.732663 C330.130955,100.775893 330.428193,100.802912 330.439001,100.797508 C330.444406,100.786701 330.228233,100.608376 329.958016,100.397628 C327.01266,98.1226358 324.613141,95.1937856 323.570106,92.5945662 C322.591924,90.162864 322.716223,88.0824077 323.89977,86.8989793 C325.639962,85.1589613 329.239241,85.7695887 332.816904,88.4120384 C334.384157,89.5738517 336.097328,91.2706394 337.39977,92.9566196 C337.610538,93.2268088 337.788881,93.4429601 337.79969,93.4375563 C337.805094,93.4267487 337.778072,93.1295407 337.734838,92.7782948 C337.39977,90.1250375 337.497048,87.3745122 337.99965,85.1103272 C338.340122,83.5972681 339.004854,81.9977484 339.702012,81.0196638 C340.345126,80.1172321 341.204414,79.4147403 342.025871,79.1337436 C342.528473,78.9554188 343.468825,78.9554188 343.971427,79.1337436 C346.057496,79.8578505 347.689602,82.6570099 348.246247,86.4612729 C348.527272,88.3958271 348.532676,90.6546082 348.26246,92.7782948 C348.219225,93.1295407 348.192204,93.4267487 348.197608,93.4375563 C348.208417,93.4429601 348.386759,93.2268088 348.597528,92.9566196 C350.872748,90.0115581 353.801892,87.6122786 356.401371,86.5693485 C358.833317,85.5912639 360.913981,85.7155509 362.097528,86.8989793 C363.83772,88.6389973 363.227032,92.2379165 360.584317,95.8152207 C359.422388,97.3823176 357.72543,99.0953167 356.039281,100.397628 C355.769065,100.608376 355.552892,100.786701 355.558297,100.797508 C355.569105,100.802912 355.866343,100.775893 356.217624,100.732663 C358.871147,100.397628 361.621948,100.494896 363.886359,100.997448 C365.39957,101.337887 366.999249,102.002552 367.977432,102.69964 C368.879954,103.34269 369.582516,104.201891 369.863541,105.023266 C370.041884,105.525818 370.041884,106.466076 369.863541,106.968628 C369.139361,109.054488 366.339922,110.686431 362.535278,111.24302 C360.60053,111.524017 358.341523,111.529421 356.217624,111.259231 C355.866343,111.216001 355.569105,111.188982 355.558297,111.194386 C355.552892,111.205194 355.769065,111.383518 356.039281,111.594266 C358.984638,113.869258 361.384157,116.798109 362.427192,119.397328 C363.405374,121.82903 363.281075,123.909487 362.097528,125.092915 C360.357336,126.832933 356.758056,126.222306 353.180394,123.579856 C351.613141,122.418043 349.89997,120.721255 348.597528,119.035275 C348.386759,118.765086 348.208417,118.548934 348.197608,118.554338 C348.192204,118.565146 348.219225,118.862354 348.26246,119.2136 C348.597528,121.866857 348.50025,124.617382 347.997648,126.881567 C347.657176,128.394626 346.992444,129.994146 346.295286,130.972231 C345.646767,131.880066 344.776671,132.587962 343.971427,132.852747 C343.522868,133.004053 342.766263,133.041879 342.323108,132.939207 Z" id="Shape"></path>
                <path d="M82,284.944021 C82,284.916031 82.9889658,281.240064 84.1925185,276.780388 C85.3960711,272.311383 86.3850369,268.579436 86.3850369,268.486138 C86.3850369,268.392839 85.3960711,264.651563 84.1831886,260.173227 C82.9796359,255.704221 82.0093299,252.028254 82.0279896,252.000265 C82.0559792,251.981605 85.7319463,252.951911 90.200952,254.155464 C94.6792876,255.368346 98.4205638,256.357312 98.5138625,256.357312 C98.6071611,256.357312 102.348437,255.368346 106.826773,254.155464 C111.295779,252.951911 114.971746,251.981605 114.999735,252.000265 C115.018395,252.028254 114.048089,255.704221 112.844536,260.173227 C111.631654,264.651563 110.642688,268.392839 110.642688,268.486138 C110.642688,268.579436 111.631654,272.320712 112.844536,276.799048 C114.048089,281.268054 115.018395,284.944021 114.999735,284.97201 C114.971746,284.99067 111.295779,284.020364 106.826773,282.816811 C102.348437,281.603929 98.6071611,280.614963 98.5138625,280.614963 C98.4205638,280.614963 94.6886175,281.603929 90.2196118,282.807482 C85.7599359,284.011034 82.0839688,285 82.0559792,285 C82.0279896,285 82,284.97201 82,284.944021 Z" id="Shape"></path>
                <path d="M242.815068,128.521554 C239.034595,128.162027 236.991833,124.403344 237.966911,119.593319 C238.517095,116.875083 239.938858,114.037005 241.965279,111.612927 C242.204963,111.329664 242.395621,111.08998 242.390173,111.08998 C242.384726,111.084532 242.194068,111.111769 241.970726,111.155348 C239.868042,111.558453 237.247859,111.607479 235.254123,111.280637 C231.702439,110.703217 228.858914,109.009086 227.649598,106.759323 C226.783467,105.15235 226.783467,103.365613 227.649598,101.75864 C228.858914,99.5088777 231.702439,97.8147466 235.254123,97.2373257 C237.247859,96.9104837 239.868042,96.95951 241.970726,97.3626152 C242.194068,97.4061941 242.384726,97.4334309 242.390173,97.4279836 C242.395621,97.4279836 242.204963,97.1882994 241.965279,96.9050363 C240.28749,94.9004053 238.898411,92.3619324 238.271964,90.1775383 C237.465754,87.366697 237.558359,84.8391188 238.544332,82.9161983 C239.323306,81.3854882 240.603437,80.4104095 242.270331,80.0672254 C242.793278,79.9582781 243.920883,79.9855149 244.56912,80.1216991 C247.902908,80.818962 251.133197,83.8041191 253.197749,88.1020915 C253.557275,88.8592755 253.987617,89.9051699 254.123801,90.3573014 C254.161933,90.4825908 254.205512,90.5860908 254.227301,90.5860908 C254.249091,90.5860908 254.29267,90.4825908 254.330801,90.3573014 C254.466986,89.9051699 254.897328,88.8592755 255.256854,88.1020915 C257.321406,83.8041191 260.551694,80.818962 263.885483,80.1216991 C264.533719,79.9855149 265.661324,79.9582781 266.184272,80.0672254 C267.851166,80.4104095 269.131297,81.3854882 269.910271,82.9161983 C270.896244,84.8391188 270.988849,87.366697 270.182639,90.1775383 C269.556192,92.3619324 268.167113,94.9004053 266.489324,96.9050363 C266.24964,97.1882994 266.058982,97.4279836 266.06443,97.4279836 C266.069877,97.4334309 266.260535,97.4061941 266.483877,97.3626152 C268.58656,96.95951 271.206744,96.9104837 273.20048,97.2373257 C276.752163,97.8147466 279.595689,99.5088777 280.805004,101.75864 C281.671136,103.365613 281.671136,105.15235 280.805004,106.759323 C279.595689,109.009086 276.752163,110.703217 273.20048,111.280637 C271.206744,111.607479 268.58656,111.558453 266.483877,111.155348 C266.260535,111.111769 266.069877,111.084532 266.06443,111.08998 C266.058982,111.08998 266.24964,111.329664 266.489324,111.612927 C268.167113,113.617558 269.556192,116.156031 270.182639,118.340425 C270.988849,121.151266 270.896244,123.678844 269.910271,125.601765 C269.131297,127.132475 267.851166,128.107554 266.184272,128.450738 C265.661324,128.559685 264.533719,128.532448 263.885483,128.396264 C260.551694,127.699001 257.321406,124.713844 255.256854,120.415872 C254.897328,119.658688 254.466986,118.612793 254.330801,118.166109 C254.29267,118.035372 254.249091,117.931872 254.227301,117.931872 C254.205512,117.931872 254.161933,118.035372 254.123801,118.166109 C253.87867,118.983214 253.088802,120.726372 252.484144,121.777713 C250.446829,125.318502 247.472566,127.813396 244.596357,128.385369 C244.057067,128.494317 243.207278,128.559685 242.815068,128.521554 Z" id="Shape"></path>
                <path d="M165.695015,281.147465 C164.790113,276.824047 164.025974,273.244659 164.005865,273.184332 C163.985756,273.124005 160.828655,271.273984 156.987851,269.062003 C153.147047,266.860075 150,265.030163 150,265 C150,264.969837 153.147047,263.139925 156.987851,260.937997 C160.828655,258.726016 163.985756,256.875995 164.005865,256.815668 C164.025974,256.755341 164.790113,253.175953 165.695015,248.852535 L167.333892,241 L169.505656,242.96062 C178.936741,251.506912 179.359028,251.878928 179.690825,251.858819 C179.871806,251.83871 183.431085,251.466695 187.593632,251.024298 C191.766234,250.571848 195.255132,250.219941 195.345622,250.24005 C195.466276,250.260159 194.782572,251.888982 192.20863,257.63008 L188.910767,265 L192.20863,272.36992 C194.782572,278.111018 195.466276,279.739841 195.345622,279.75995 C195.255132,279.780059 191.766234,279.428152 187.593632,278.975702 C183.431085,278.533305 179.871806,278.16129 179.690825,278.141181 C179.359028,278.121072 178.936741,278.493088 169.505656,287.03938 L167.333892,289 L165.695015,281.147465 Z" id="Shape"></path>
                <path d="M250.208,285.25 L246.3308,278.5 L238.5332,278.4784 L230.7356,278.446 L234.602,271.7716 C236.7404,268.0996 238.4792,265.054 238.4792,265 C238.4792,264.946 236.7404,261.9004 234.602,258.2284 L230.7356,251.554 L238.5332,251.5216 L246.3308,251.5 L250.208,244.75 C252.3356,241.0348 254.1068,238 254.1392,238 C254.1716,238 255.9428,241.0348 258.0704,244.75 L261.9476,251.5 L269.7452,251.5216 L277.5428,251.554 L273.6764,258.2284 C271.538,261.9004 269.7992,264.946 269.7992,265 C269.7992,265.054 271.538,268.0996 273.6764,271.7716 L277.5428,278.446 L269.7452,278.4784 L261.9476,278.5 L258.0704,285.25 C255.9428,288.9652 254.1716,292 254.1392,292 C254.1068,292 252.3356,288.9652 250.208,285.25 Z" id="Shape"></path>
                <path d="M332.740613,288.42859 C332.616865,288.104942 331.741111,285.801328 330.808242,283.316852 L329.09481,278.795295 L324.192491,276.948596 C321.498595,275.930056 319.194981,275.054302 319.080752,274.997187 C318.871332,274.892477 318.918928,274.787768 321.117832,269.914005 L323.364332,264.945052 L321.117832,259.9761 C318.918928,255.102337 318.871332,254.997628 319.080752,254.892918 C319.194981,254.835803 321.498595,253.960049 324.192491,252.941509 L329.09481,251.09481 L330.941509,246.192491 C331.960049,243.498595 332.835803,241.194981 332.892918,241.080752 C332.997628,240.871332 333.102337,240.918928 337.9761,243.117832 L342.945052,245.364332 L347.914005,243.117832 C352.787768,240.918928 352.892477,240.871332 352.997187,241.080752 C353.054302,241.194981 353.930056,243.498595 354.948596,246.192491 L356.795295,251.09481 L361.697614,252.941509 C364.39151,253.960049 366.695124,254.835803 366.809353,254.892918 C367.018773,254.997628 366.971177,255.102337 364.772273,259.9761 L362.525773,264.945052 L364.772273,269.914005 C366.971177,274.787768 367.018773,274.892477 366.809353,274.997187 C366.695124,275.054302 364.39151,275.930056 361.697614,276.948596 L356.795295,278.795295 L354.948596,283.697614 C353.930056,286.39151 353.054302,288.695124 352.997187,288.809353 C352.892477,289.018773 352.787768,288.971177 347.914005,286.772273 L342.945052,284.525773 L338.014176,286.743716 C335.310761,287.962156 333.064261,288.980696 333.026185,288.999734 C332.997628,289.009254 332.864361,288.761758 332.740613,288.42859 Z" id="Shape"></path>
                <path d="M425.817478,291.058897 C425.68268,290.872255 424.345075,288.964353 422.841565,286.828332 C421.348424,284.692311 420.114509,282.929575 420.10414,282.919206 C420.093771,282.908837 417.802215,282.701456 415.012945,282.462969 C412.213306,282.224481 409.901011,281.996362 409.849166,281.954886 C409.80769,281.923779 409.973594,279.601115 410.222451,276.811845 L410.678689,271.741388 L406.987313,268.039643 L403.295937,264.327529 L406.987313,260.625784 L410.678689,256.91367 L410.222451,251.843212 C409.973594,249.053942 409.80769,246.731279 409.849166,246.700171 C409.901011,246.658695 412.213306,246.430577 415.012945,246.192089 C417.802215,245.953601 420.093771,245.74622 420.10414,245.735851 C420.114509,245.725482 421.410639,243.869425 422.997101,241.619345 C424.573194,239.369265 425.921168,237.471731 425.983382,237.399148 C426.076704,237.305827 427.092869,237.969445 430.307269,240.229894 C432.619564,241.847464 434.537835,243.1747 434.579311,243.1747 C434.651894,243.1747 444.25362,240.613549 444.461,240.540965 C444.523215,240.520227 445.145357,242.63551 445.912665,245.518102 L447.260639,250.526345 L451.957812,252.72458 C454.674498,253.999971 456.634246,254.97466 456.603139,255.036874 C456.582401,255.099089 455.597342,257.214372 454.425642,259.744416 L452.279252,264.327529 L454.425642,268.921011 C455.597342,271.440686 456.582401,273.555969 456.603139,273.618183 C456.634246,273.680397 454.674498,274.655086 451.957812,275.930477 L447.260639,278.128712 L445.912665,283.136956 C445.145357,286.019547 444.523215,288.13483 444.461,288.114092 C443.890703,287.906711 434.600049,285.480357 434.506728,285.511464 C434.423776,285.552941 428.617117,289.586495 426.346299,291.193695 L426.066335,291.390706 L425.817478,291.058897 Z" id="Shape"></path>
            </g>
        </g>
    </g>
</svg>