<?xml version="1.0" standalone="no"?>
<!DOCTYPE svg PUBLIC "-//W3C//DTD SVG 20010904//EN"
 "http://www.w3.org/TR/2001/REC-SVG-20010904/DTD/svg10.dtd">
<svg version="1.0" xmlns="http://www.w3.org/2000/svg"
 width="1000.000000pt" height="1000.000000pt" viewBox="0 0 1000.000000 1000.000000"
 preserveAspectRatio="xMidYMid meet">
<metadata>
Created by potrace 1.15, written by Peter Selinger 2001-2017
</metadata>
<g transform="translate(0.000000,1000.000000) scale(0.100000,-0.100000)"
fill="#000000" stroke="none">
<path d="M6052 9810 c-553 -46 -1089 -445 -1440 -1075 -195 -349 -326 -783
-375 -1238 l-12 -118 -65 77 c-36 42 -120 129 -187 194 -362 350 -753 591
-1186 729 -384 123 -795 136 -1142 36 -123 -35 -332 -140 -436 -219 -539 -408
-646 -1163 -268 -1875 244 -460 666 -865 1200 -1153 75 -40 184 -93 242 -118
59 -25 107 -47 107 -50 0 -3 -48 -25 -107 -50 -529 -224 -1031 -631 -1326
-1077 -320 -483 -421 -1021 -276 -1467 107 -327 324 -574 644 -731 225 -111
427 -155 708 -155 239 0 433 30 654 101 433 138 824 379 1186 729 67 65 151
152 187 194 l65 77 12 -118 c79 -746 367 -1387 819 -1823 161 -154 291 -248
475 -341 105 -52 290 -114 404 -134 115 -20 333 -21 445 -1 622 111 1063 672
1141 1451 15 156 6 439 -20 615 -60 393 -214 821 -422 1166 -27 45 -49 84 -49
86 0 2 71 -10 158 -28 438 -89 881 -92 1290 -8 439 90 832 292 1107 569 433
437 534 1022 265 1534 -170 322 -485 598 -873 766 -349 151 -689 218 -1107
218 -258 0 -439 -18 -682 -67 -87 -18 -158 -30 -158 -28 0 2 22 41 49 86 115
191 240 470 311 691 144 452 177 922 95 1327 -125 614 -504 1061 -1011 1193
-81 21 -129 28 -284 39 -25 2 -87 0 -138 -4z"/>
</g>
</svg>
