<?xml version="1.0" standalone="no"?>
<!DOCTYPE svg PUBLIC "-//W3C//DTD SVG 20010904//EN"
 "http://www.w3.org/TR/2001/REC-SVG-20010904/DTD/svg10.dtd">
<svg version="1.0" xmlns="http://www.w3.org/2000/svg"
 width="1000.000000pt" height="1000.000000pt" viewBox="0 0 1000.000000 1000.000000"
 preserveAspectRatio="xMidYMid meet">
<metadata>
Created by potrace 1.15, written by Peter Selinger 2001-2017
</metadata>
<g transform="translate(0.000000,1000.000000) scale(0.100000,-0.100000)"
fill="#000000" stroke="none">
<path d="M3225 8983 c-698 -61 -1356 -442 -1781 -1033 -497 -690 -637 -1575
-388 -2450 140 -492 415 -991 828 -1505 290 -361 508 -595 2111 -2265 406
-422 543 -569 677 -726 160 -188 271 -350 306 -447 9 -26 19 -47 22 -47 3 0
13 21 22 48 35 96 146 258 306 446 134 157 271 304 677 726 1775 1849 1952
2042 2277 2480 663 893 911 1827 722 2721 -185 880 -780 1591 -1592 1905 -717
278 -1524 168 -2039 -277 -141 -121 -281 -313 -339 -463 -16 -41 -31 -76 -34
-76 -3 0 -18 35 -34 76 -58 150 -198 342 -339 463 -320 277 -771 434 -1232
429 -71 -1 -148 -3 -170 -5z"/>
</g>
</svg>
