<?xml version="1.0" standalone="no"?>
<!DOCTYPE svg PUBLIC "-//W3C//DTD SVG 20010904//EN"
 "http://www.w3.org/TR/2001/REC-SVG-20010904/DTD/svg10.dtd">
<svg version="1.0" xmlns="http://www.w3.org/2000/svg"
 width="1000.000000pt" height="1000.000000pt" viewBox="0 0 1000.000000 1000.000000"
 preserveAspectRatio="xMidYMid meet">
<metadata>
Created by potrace 1.15, written by Peter Selinger 2001-2017
</metadata>
<g transform="translate(0.000000,1000.000000) scale(0.100000,-0.100000)"
fill="#000000" stroke="none">
<path d="M3456 8685 c9 -82 183 -2319 181 -2322 -1 -1 -533 40 -1182 91 -649
52 -1181 92 -1183 91 -2 -1 401 -348 895 -769 494 -422 898 -771 898 -776 0
-5 -404 -354 -898 -776 -494 -421 -897 -768 -895 -769 2 -1 534 39 1183 91
649 51 1181 92 1182 91 1 -1 -40 -533 -91 -1182 -52 -649 -92 -1181 -91 -1183
1 -2 348 401 769 895 422 494 771 898 776 898 5 0 354 -404 776 -898 421 -494
768 -897 769 -895 1 2 -39 534 -91 1183 -51 649 -92 1181 -91 1182 1 1 533
-40 1182 -91 649 -52 1181 -92 1183 -91 2 1 -401 348 -895 769 -494 422 -898
771 -898 776 0 5 404 354 898 776 494 421 897 768 895 769 -2 1 -534 -39
-1183 -91 -649 -51 -1181 -92 -1182 -91 -1 1 40 533 91 1182 52 649 92 1181
91 1183 -1 2 -348 -401 -769 -895 -422 -494 -771 -898 -776 -898 -5 0 -345
394 -755 875 -411 481 -758 886 -771 900 l-24 24 6 -49z"/>
</g>
</svg>
