<?xml version="1.0" standalone="no"?>
<!DOCTYPE svg PUBLIC "-//W3C//DTD SVG 20010904//EN"
 "http://www.w3.org/TR/2001/REC-SVG-20010904/DTD/svg10.dtd">
<svg version="1.0" xmlns="http://www.w3.org/2000/svg"
 width="1000.000000pt" height="1000.000000pt" viewBox="0 0 1000.000000 1000.000000"
 preserveAspectRatio="xMidYMid meet">
<metadata>
Created by potrace 1.15, written by Peter Selinger 2001-2017
</metadata>
<g transform="translate(0.000000,1000.000000) scale(0.100000,-0.100000)"
fill="#000000" stroke="none">
<path d="M2252 7639 c401 -780 1338 -2628 1338 -2639 0 -11 -937 -1859 -1338
-2639 l-115 -224 224 115 c780 401 2628 1338 2639 1338 11 0 1859 -937 2639
-1338 l224 -115 -115 224 c-401 780 -1338 2628 -1338 2639 0 11 937 1859 1338
2639 l115 224 -224 -115 c-780 -401 -2628 -1338 -2639 -1338 -11 0 -1859 937
-2639 1338 l-224 115 115 -224z"/>
</g>
</svg>
