<?xml version="1.0" standalone="no"?>
<!DOCTYPE svg PUBLIC "-//W3C//DTD SVG 20010904//EN"
 "http://www.w3.org/TR/2001/REC-SVG-20010904/DTD/svg10.dtd">
<svg version="1.0" xmlns="http://www.w3.org/2000/svg"
 width="1000.000000pt" height="1000.000000pt" viewBox="0 0 1000.000000 1000.000000"
 preserveAspectRatio="xMidYMid meet">
<metadata>
Created by potrace 1.15, written by Peter Selinger 2001-2017
</metadata>
<g transform="translate(0.000000,1000.000000) scale(0.100000,-0.100000)"
fill="#000000" stroke="none">
<path d="M3950 8860 c-1 -93 -97 -1861 -101 -1865 -4 -3 -199 95 -1357 686
l-353 180 180 -353 c99 -194 295 -578 435 -853 l255 -500 -47 -7 c-26 -4 -450
-28 -942 -53 -492 -25 -902 -47 -910 -48 -8 -1 347 -236 788 -522 441 -286
801 -522 801 -525 0 -3 -360 -239 -801 -525 -441 -286 -796 -521 -788 -522 8
-1 418 -23 910 -48 492 -25 916 -49 942 -53 l47 -7 -255 -500 c-140 -275 -336
-659 -435 -853 l-180 -353 353 180 c194 99 578 295 853 435 l500 255 7 -47 c4
-26 28 -450 53 -942 25 -492 47 -902 48 -910 1 -8 236 347 522 788 286 441
522 801 525 801 3 0 239 -360 525 -801 286 -441 521 -796 522 -788 1 8 23 418
48 910 25 492 49 916 53 942 l7 47 500 -255 c275 -140 659 -336 853 -435 l353
-180 -180 353 c-99 194 -295 578 -435 853 l-255 500 47 7 c26 4 450 28 942 53
492 25 902 47 910 48 8 1 -347 236 -788 522 -441 286 -801 522 -801 525 0 3
360 239 801 525 441 286 796 521 788 522 -8 1 -418 23 -910 48 -492 25 -916
49 -942 53 l-47 7 255 500 c140 275 336 659 435 853 l180 353 -353 -180 c-194
-99 -578 -295 -853 -435 l-500 -255 -7 47 c-4 26 -28 450 -53 942 -25 492 -47
902 -48 910 -1 8 -236 -347 -522 -788 -286 -441 -522 -801 -525 -801 -3 0
-234 352 -513 784 -280 431 -515 792 -523 802 -12 16 -13 13 -14 -27z"/>
</g>
</svg>
