<?xml version="1.0" standalone="no"?>
<!DOCTYPE svg PUBLIC "-//W3C//DTD SVG 20010904//EN"
 "http://www.w3.org/TR/2001/REC-SVG-20010904/DTD/svg10.dtd">
<svg version="1.0" xmlns="http://www.w3.org/2000/svg"
 width="1000.000000pt" height="1000.000000pt" viewBox="0 0 1000.000000 1000.000000"
 preserveAspectRatio="xMidYMid meet">
<metadata>
Created by potrace 1.15, written by Peter Selinger 2001-2017
</metadata>
<g transform="translate(0.000000,1000.000000) scale(0.100000,-0.100000)"
fill="#000000" stroke="none">
<path d="M4141 7867 c-85 -606 -155 -1103 -156 -1105 -2 -1 -447 177 -991 397
-544 220 -1013 409 -1041 420 l-51 20 594 -950 c327 -523 594 -952 594 -953 0
-1 -477 -157 -1060 -347 -583 -189 -1060 -346 -1060 -349 0 -3 477 -160 1060
-349 583 -190 1060 -346 1060 -347 0 -1 -267 -430 -594 -953 l-594 -950 51 20
c28 11 497 200 1041 420 544 220 989 398 991 397 1 -2 71 -499 156 -1105 85
-607 156 -1103 159 -1103 3 0 241 443 529 985 l523 985 62 -54 c33 -30 408
-367 831 -749 424 -382 771 -694 773 -692 1 1 -102 491 -229 1089 -127 598
-228 1090 -225 1094 4 3 504 -11 1112 -32 607 -21 1107 -37 1109 -34 2 2 -389
311 -870 687 -481 376 -875 687 -875 691 0 4 394 315 875 691 481 376 872 685
870 687 -2 3 -502 -13 -1109 -34 -608 -21 -1108 -35 -1112 -32 -3 4 98 496
225 1094 127 598 230 1088 229 1089 -2 2 -349 -310 -773 -692 -423 -382 -798
-719 -831 -749 l-62 -54 -523 985 c-288 542 -526 985 -529 985 -3 0 -74 -496
-159 -1103z"/>
</g>
</svg>
