<?xml version="1.0" standalone="no"?>
<!DOCTYPE svg PUBLIC "-//W3C//DTD SVG 20010904//EN"
 "http://www.w3.org/TR/2001/REC-SVG-20010904/DTD/svg10.dtd">
<svg version="1.0" xmlns="http://www.w3.org/2000/svg"
 width="1000.000000pt" height="1000.000000pt" viewBox="0 0 1000.000000 1000.000000"
 preserveAspectRatio="xMidYMid meet">
<metadata>
Created by potrace 1.15, written by Peter Selinger 2001-2017
</metadata>
<g transform="translate(0.000000,1000.000000) scale(0.100000,-0.100000)"
fill="#000000" stroke="none">
<path d="M3748 7375 l-3 -1469 -1387 -450 c-764 -248 -1388 -453 -1388 -456 0
-3 624 -208 1388 -456 l1387 -450 5 -1467 5 -1467 855 1176 c470 647 858 1181
861 1186 5 7 2762 -881 2793 -900 15 -9 20 -16 -858 1193 -468 644 -850 1177
-850 1185 0 8 382 542 850 1185 878 1209 873 1202 858 1193 -14 -9 -2786 -909
-2789 -906 -1 2 -386 532 -855 1178 -469 646 -857 1179 -861 1184 -5 6 -10
-635 -11 -1459z"/>
</g>
</svg>
