<?xml version="1.0" standalone="no"?>
<!DOCTYPE svg PUBLIC "-//W3C//DTD SVG 20010904//EN"
 "http://www.w3.org/TR/2001/REC-SVG-20010904/DTD/svg10.dtd">
<svg version="1.0" xmlns="http://www.w3.org/2000/svg"
 width="1000.000000pt" height="1000.000000pt" viewBox="0 0 1000.000000 1000.000000"
 preserveAspectRatio="xMidYMid meet">
<metadata>
Created by potrace 1.15, written by Peter Selinger 2001-2017
</metadata>
<g transform="translate(0.000000,1000.000000) scale(0.100000,-0.100000)"
fill="#000000" stroke="none">
<path d="M5260 7872 c-349 -585 -642 -1074 -651 -1085 -16 -20 -38 -7 -1070
675 -580 383 -1055 695 -1056 694 -1 -1 198 -535 442 -1186 245 -651 444
-1184 443 -1185 -2 -2 -542 -177 -1201 -391 -658 -214 -1197 -391 -1197 -394
0 -3 539 -180 1198 -394 658 -214 1198 -389 1200 -391 1 -1 -198 -534 -443
-1185 -244 -651 -443 -1185 -442 -1186 1 -1 476 311 1055 693 888 586 1055
694 1066 682 8 -8 302 -497 655 -1088 352 -591 641 -1070 641 -1065 5 102 228
2506 233 2511 4 4 566 -69 1248 -161 682 -92 1243 -166 1245 -163 3 2 -404
395 -903 873 -499 478 -908 871 -908 874 0 3 409 396 908 874 499 478 906 871
903 873 -2 3 -563 -71 -1245 -163 -682 -92 -1244 -165 -1248 -161 -3 4 -57
570 -119 1258 -62 688 -114 1252 -116 1254 -2 1 -289 -477 -638 -1063z"/>
</g>
</svg>
