<?xml version="1.0" standalone="no"?>
<!DOCTYPE svg PUBLIC "-//W3C//DTD SVG 20010904//EN"
 "http://www.w3.org/TR/2001/REC-SVG-20010904/DTD/svg10.dtd">
<svg version="1.0" xmlns="http://www.w3.org/2000/svg"
 width="1000.000000pt" height="1000.000000pt" viewBox="0 0 1000.000000 1000.000000"
 preserveAspectRatio="xMidYMid meet">
<metadata>
Created by potrace 1.15, written by Peter Selinger 2001-2017
</metadata>
<g transform="translate(0.000000,1000.000000) scale(0.100000,-0.100000)"
fill="#000000" stroke="none">
<path d="M4868 7082 c-163 -110 -244 -177 -388 -321 -396 -397 -630 -876 -712
-1456 -17 -117 -17 -493 0 -610 67 -475 234 -875 520 -1245 85 -109 303 -327
412 -412 101 -78 283 -198 300 -198 17 0 199 120 300 198 109 85 327 303 412
412 286 370 453 770 520 1245 17 117 17 493 0 610 -56 400 -182 743 -389 1060
-103 157 -187 260 -328 400 -71 72 -168 160 -215 197 -105 81 -283 198 -301
198 -8 0 -67 -35 -131 -78z"/>
</g>
</svg>
